<?xml version="1.0" encoding="UTF-8"?>
<svg version="1.1" xmlns="http://www.w3.org/2000/svg" width="512" height="512">
<path d="M0 0 C1.51427582 0.00081573 1.51427582 0.00081573 3.05914307 0.00164795 C19.57229403 0.04242277 35.48017849 0.96211211 51.6875 4.375 C52.71875 4.58930664 53.75 4.80361328 54.8125 5.02441406 C102.11638349 15.17996655 144.95521591 38.89395401 179.6875 72.375 C180.24356934 72.90915527 180.79963867 73.44331055 181.37255859 73.99365234 C188.68212845 81.05152969 195.50957844 88.28915648 201.6875 96.375 C202.20425293 97.04241211 202.72100586 97.70982422 203.25341797 98.39746094 C237.50888602 142.8269496 257.12812436 196.76209379 257.00317383 253.02685547 C257.00002635 255.97531615 257.02352578 258.92275697 257.04882812 261.87109375 C257.09344438 275.26105903 255.89175057 288.17266733 253.6875 301.375 C253.40531616 303.08042969 253.40531616 303.08042969 253.11743164 304.8203125 C252.65119865 307.41610846 252.13246002 309.9876671 251.5625 312.5625 C251.35786133 313.48844971 251.15322266 314.41439941 250.94238281 315.3684082 C246.58076862 334.12614914 240.7398421 356.91739384 229.58621216 372.95890808 C228.21974655 376.63250532 228.91111696 380.09425805 229.39770508 383.89404297 C229.49608327 384.73391691 229.59446146 385.57379086 229.69582081 386.43911552 C230.01127731 389.08653095 230.3462624 391.7307924 230.6875 394.375 C230.79083523 395.18478554 230.89417046 395.99457108 231.00063705 396.82889557 C231.62936527 401.71635392 232.2913984 406.59882218 232.96668053 411.48004532 C233.33592397 414.15511363 233.70002264 416.83083912 234.06269836 419.50680542 C235.09172875 427.09838576 236.12376606 434.68951577 237.1730957 442.27832031 C237.82019986 446.96091423 238.4566458 451.6448529 239.08625221 456.32983017 C239.32591442 458.09806796 239.56948896 459.86578042 239.81720543 461.63290787 C240.16254116 464.09923606 240.49421697 466.56706256 240.82299805 469.03564453 C240.97796501 470.10650047 240.97796501 470.10650047 241.13606262 471.19898987 C241.92525533 477.30661408 242.01642003 483.52731423 239.375 489.1875 C235.845466 493.76282185 233.34187064 495.85093799 227.6875 497.375 C217.1025195 497.64189573 206.18794945 495.46904018 195.72303772 494.01635361 C192.78048209 493.60841644 189.83710715 493.20693824 186.89343262 492.80715942 C178.53543896 491.67113318 170.17880696 490.52533427 161.82324219 489.37158203 C156.68583675 488.66265184 151.54731397 487.962356 146.40800476 487.26736832 C144.45874024 487.0019751 142.50992773 486.73323909 140.56159973 486.46105576 C137.84483606 486.0816656 135.12678977 485.71323179 132.40820312 485.34716797 C131.61020294 485.23293488 130.81220276 485.11870178 129.99002075 485.00100708 C122.41804914 484.00382533 117.16336453 485.41949445 110.375 488.875 C91.76201016 497.92996803 71.9362886 504.21292729 51.6875 508.375 C50.17784668 508.69041748 50.17784668 508.69041748 48.63769531 509.01220703 C19.12633535 514.88564662 -14.7831976 515.37132731 -44.3125 509.375 C-45.21291016 509.19807617 -46.11332031 509.02115234 -47.04101562 508.83886719 C-68.05644209 504.62267456 -87.85492559 498.36421794 -107.3125 489.375 C-108.37911865 488.88410889 -108.37911865 488.88410889 -109.46728516 488.38330078 C-127.78275387 479.84729229 -144.66301224 469.13183502 -160.3125 456.375 C-160.91755371 455.88563965 -161.52260742 455.3962793 -162.14599609 454.89208984 C-175.81817496 443.75919138 -188.55954378 431.36606235 -199.3125 417.375 C-200.09625 416.39660156 -200.88 415.41820312 -201.6875 414.41015625 C-226.00443471 383.86682279 -242.43278735 348.02724996 -250.6875 309.9375 C-250.9261377 308.83801025 -251.16477539 307.73852051 -251.41064453 306.60571289 C-254.82885951 289.95581758 -255.68955986 273.70455979 -255.625 256.75 C-255.62284485 255.73209381 -255.6206897 254.71418762 -255.61846924 253.66543579 C-255.56879854 239.05636477 -255.31790191 224.72424147 -252.3125 210.375 C-252.11382324 209.40014648 -251.91514648 208.42529297 -251.71044922 207.42089844 C-241.58982806 159.0390226 -219.6733123 115.05071731 -185.3125 79.375 C-184.68037598 78.71564453 -184.04825195 78.05628906 -183.39697266 77.37695312 C-174.25252521 67.88869695 -164.95515991 59.1487956 -154.3125 51.375 C-153.16144983 50.51693848 -152.01040823 49.65886549 -150.859375 48.80078125 C-142.66974019 42.76322604 -134.16711724 37.38042698 -125.3125 32.375 C-124.60528809 31.9728125 -123.89807617 31.570625 -123.16943359 31.15625 C-100.03404164 18.1308259 -74.86287591 9.38198539 -48.875 4.0625 C-48.15610596 3.91514404 -47.43721191 3.76778809 -46.6965332 3.6159668 C-31.16987908 0.66484793 -15.76936592 -0.03207988 0 0 Z " fill="#31FED7" transform="translate(255.3125,-0.375)"/>
<path d="M0 0 C22.51759992 21.29958828 29.47209877 52.46267631 30.41772461 82.50390625 C30.54137398 88.72158379 30.55111688 94.93708852 30.52001953 101.15576172 C30.50392256 104.97269406 30.51997555 108.78856796 30.5390625 112.60546875 C30.5698503 147.77776421 26.59497814 183.89263666 0.94140625 210.2265625 C-5.3416733 216.42946781 -12.19468135 221.16533033 -19.87109375 225.4765625 C-20.94617188 226.09015625 -22.02125 226.70375 -23.12890625 227.3359375 C-62.21571874 248.21919902 -109.57929141 249.85655063 -152.85620117 249.79223633 C-156.22873311 249.78761664 -159.60090337 249.79449901 -162.97338867 249.81274414 C-215.04598187 250.0915865 -277.26512264 247.86718793 -316.87109375 209.4765625 C-317.78761719 208.67025391 -317.78761719 208.67025391 -318.72265625 207.84765625 C-331.42084859 196.28012487 -337.56178039 179.52782386 -341.62109375 163.2890625 C-341.91935059 162.12588501 -341.91935059 162.12588501 -342.22363281 160.93920898 C-346.1074216 144.27322513 -346.19646169 127.03210573 -346.13183594 110.0144043 C-346.12113855 106.67803645 -346.13178867 103.34221082 -346.14453125 100.00585938 C-346.15216369 89.30828017 -345.89590486 78.68595764 -344.9921875 68.0234375 C-344.9162738 67.11913498 -344.84036011 66.21483246 -344.762146 65.28312683 C-342.13520113 37.52792325 -331.43577716 12.67404337 -309.87109375 -5.5234375 C-305.44698856 -8.93295458 -300.73500344 -11.79176509 -295.87109375 -14.5234375 C-294.79601562 -15.13703125 -293.7209375 -15.750625 -292.61328125 -16.3828125 C-223.01097182 -53.56986198 -91.50813895 -51.98775765 0 0 Z " fill="#CAE7E9" transform="translate(413.87109375,150.5234375)"/>
<path d="M0 0 C14.12420191 6.26322076 27.84526854 23.9974612 37 36 C37.51530273 36.66596191 38.03060547 37.33192383 38.56152344 38.01806641 C72.81984797 82.44835781 92.44063013 136.38449374 92.31567383 192.65185547 C92.31252635 195.60031615 92.33602578 198.54775697 92.36132812 201.49609375 C92.40594438 214.88605903 91.20425057 227.79766733 89 241 C88.81187744 242.13695312 88.62375488 243.27390625 88.42993164 244.4453125 C87.96369865 247.04110846 87.44496002 249.6126671 86.875 252.1875 C86.56804199 253.57642456 86.56804199 253.57642456 86.25488281 254.9934082 C81.89326862 273.75114914 76.0523421 296.54239384 64.89871216 312.58390808 C63.53224655 316.25750532 64.22361696 319.71925805 64.71020508 323.51904297 C64.80858327 324.35891691 64.90696146 325.19879086 65.00832081 326.06411552 C65.32377731 328.71153095 65.6587624 331.3557924 66 334 C66.10333523 334.80978554 66.20667046 335.61957108 66.31313705 336.45389557 C66.94186527 341.34135392 67.6038984 346.22382218 68.27918053 351.10504532 C68.64842397 353.78011363 69.01252264 356.45583912 69.37519836 359.13180542 C70.40422875 366.72338576 71.43626606 374.31451577 72.4855957 381.90332031 C73.13269986 386.58591423 73.7691458 391.2698529 74.39875221 395.95483017 C74.63841442 397.72306796 74.88198896 399.49078042 75.12970543 401.25790787 C75.47504116 403.72423606 75.80671697 406.19206256 76.13549805 408.66064453 C76.29046501 409.73150047 76.29046501 409.73150047 76.44856262 410.82398987 C77.23775533 416.93161408 77.32892003 423.15231423 74.6875 428.8125 C71.157966 433.38782185 68.65437064 435.47593799 63 437 C52.4150195 437.26689573 41.50044945 435.09404018 31.03553772 433.64135361 C28.09298209 433.23341644 25.14960715 432.83193824 22.20593262 432.43215942 C13.84793896 431.29613318 5.49130696 430.15033427 -2.86425781 428.99658203 C-8.00166325 428.28765184 -13.14018603 427.587356 -18.27949524 426.89236832 C-20.22875976 426.6269751 -22.17757227 426.35823909 -24.12590027 426.08605576 C-26.84266394 425.7066656 -29.56071023 425.33823179 -32.27929688 424.97216797 C-33.07729706 424.85793488 -33.87529724 424.74370178 -34.69747925 424.62600708 C-42.26945086 423.62882533 -47.52413547 425.04449445 -54.3125 428.5 C-72.92548984 437.55496803 -92.7512114 443.83792729 -113 448 C-114.50965332 448.31541748 -114.50965332 448.31541748 -116.04980469 448.63720703 C-145.56116465 454.51064662 -179.4706976 454.99632731 -209 449 C-209.90041016 448.82307617 -210.80082031 448.64615234 -211.72851562 448.46386719 C-232.74394209 444.24767456 -252.54242559 437.98921794 -272 429 C-273.06661865 428.50910889 -273.06661865 428.50910889 -274.15478516 428.00830078 C-292.47025387 419.47229229 -309.35051224 408.75683502 -325 396 C-325.60505371 395.51063965 -326.21010742 395.0212793 -326.83349609 394.51708984 C-340.50567496 383.38419138 -353.24704378 370.99106235 -364 357 C-364.78375 356.02160156 -365.5675 355.04320312 -366.375 354.03515625 C-390.27969277 324.00962009 -406.80886462 288.63241055 -415.0625 251.1875 C-415.27865967 250.2087793 -415.49481934 249.23005859 -415.7175293 248.22167969 C-417.13134232 241.39402695 -417.13134232 241.39402695 -416 238 C-415.40574219 239.17433594 -414.81148438 240.34867188 -414.19921875 241.55859375 C-397.11651655 274.9042238 -373.61857764 305.94181721 -343 328 C-342.38866211 328.44504883 -341.77732422 328.89009766 -341.14746094 329.34863281 C-312.09426325 350.36045338 -280.07644637 364.62533625 -245 372 C-244.09121094 372.20238281 -243.18242187 372.40476562 -242.24609375 372.61328125 C-206.524338 379.93652069 -166.70733964 377.77220753 -132 367 C-131.10071777 366.7323584 -130.20143555 366.4647168 -129.27490234 366.18896484 C-103.27835732 358.40538391 -76.03852003 346.58958232 -55 329 C-54.67 328.34 -54.34 327.68 -54 327 C-51.6134163 326.03035656 -49.24378802 325.15462679 -46.8125 324.3125 C-21.22554321 315.0318266 -0.41381519 300.20804372 11.7109375 275.515625 C16.9934175 263.23452937 20.29937118 249.83281365 21.8125 236.5625 C22.76538793 229.48913959 25.39338619 223.08090038 27.89453125 216.43920898 C33.0725441 202.62921334 36.76561383 188.5765414 39 174 C39.309375 172.07607422 39.309375 172.07607422 39.625 170.11328125 C43.16677524 145.04202132 42.37681007 117.8660528 38 93 C37.87141602 92.20819336 37.74283203 91.41638672 37.61035156 90.60058594 C32.25453445 58.1249824 18.13267755 27.2590583 0 0 Z " fill="#27E2C2" transform="translate(420,60)"/>
<path d="M0 0 C0.74008301 0.12810059 1.48016602 0.25620117 2.24267578 0.38818359 C35.82705477 6.26065215 74.86122937 20.61214435 95.48828125 49.36328125 C104.5626516 62.65186312 109.27728359 76.58555116 106.31640625 92.7265625 C103.18374678 105.49117495 97.601655 115.15739477 89 125 C88.49210937 125.59167969 87.98421875 126.18335938 87.4609375 126.79296875 C72.18168328 143.2867278 50.03920554 153.28218954 29 160 C28.16162598 160.26796387 27.32325195 160.53592773 26.45947266 160.81201172 C20.03368269 162.81455713 13.5612923 164.5027555 7 166 C6.06978027 166.21317871 5.13956055 166.42635742 4.18115234 166.64599609 C-27.0035724 173.36688789 -63.9336607 173.22445599 -95 166 C-95.84433594 165.81276367 -96.68867188 165.62552734 -97.55859375 165.43261719 C-103.11291483 164.17834577 -108.55968615 162.67758404 -114 161 C-115.19302734 160.63914307 -115.19302734 160.63914307 -116.41015625 160.27099609 C-134.70649774 154.63494003 -152.31817209 146.44374439 -167 134 C-167.86625 133.28328125 -168.7325 132.5665625 -169.625 131.828125 C-183.69603452 119.73046728 -193.5144282 104.82546626 -195.28125 86.00390625 C-195.81790888 68.80846121 -188.19432697 54.61271148 -177 42 C-176.43152344 41.33742187 -175.86304688 40.67484375 -175.27734375 39.9921875 C-134.32044699 -4.47530041 -55.59236214 -10.12362486 0 0 Z " fill="#266D6B" transform="translate(300,183)"/>
<path d="M0 0 C14.53758137 13.4416218 19.51359163 36.87592388 21.73176575 55.74064636 C21.97802704 57.81492042 22.24741016 59.88641521 22.51904297 61.95751953 C23.17909035 67.9567241 23.18125855 73.94665469 23.203125 79.9765625 C23.20882507 81.21884613 23.21452515 82.46112976 23.22039795 83.74105835 C23.22981494 86.3683793 23.23636875 88.99571189 23.24023438 91.62304688 C23.24671438 95.56397032 23.2808708 99.50451141 23.3125 103.4453125 C23.4616565 138.86712175 19.67798445 175.1985415 -6.1875 201.75 C-12.47057955 207.95290531 -19.3235876 212.68876783 -27 217 C-28.07507813 217.61359375 -29.15015625 218.2271875 -30.2578125 218.859375 C-69.34462499 239.74263652 -116.70819766 241.37998813 -159.98510742 241.31567383 C-163.35763936 241.31105414 -166.72980962 241.31793651 -170.10229492 241.33618164 C-222.17488812 241.615024 -284.39402889 239.39062543 -324 201 C-324.91652344 200.19369141 -324.91652344 200.19369141 -325.8515625 199.37109375 C-338.54975484 187.80356237 -344.69068664 171.05126136 -348.75 154.8125 C-349.04825684 153.64932251 -349.04825684 153.64932251 -349.35253906 152.46264648 C-353.60847191 134.19973053 -353.26177189 115.37678243 -353.125 96.75 C-353.11493872 94.33594126 -353.1058185 91.92187841 -353.09765625 89.5078125 C-353.07591857 83.67178321 -353.04269613 77.83591171 -353 72 C-350.36282304 73.31858848 -350.25368729 74.47893059 -349.1875 77.1875 C-346.05884288 84.434022 -342.13567239 88.55958653 -335 92 C-331.45660276 92.89167727 -328.14763812 93.13524617 -324.5 93.125 C-323.5821875 93.12757813 -322.664375 93.13015625 -321.71875 93.1328125 C-319.04995546 93.00244035 -316.60134847 92.59378606 -314 92 C-314.165 93.2375 -314.33 94.475 -314.5 95.75 C-316.40082016 113.96382896 -312.44777927 129.39763324 -301.3125 144.0625 C-277.77262226 172.1771087 -240.2528726 185.48187311 -205 191 C-203.98164063 191.17515137 -202.96328125 191.35030273 -201.9140625 191.53076172 C-190.05098366 193.37777719 -178.23208505 193.39851255 -166.25 193.375 C-165.16251465 193.37412384 -164.0750293 193.37324768 -162.95458984 193.37234497 C-137.13553267 193.30371264 -113.65456814 189.89929681 -89 182 C-88.23123535 181.75523926 -87.4624707 181.51047852 -86.67041016 181.25830078 C-70.48649083 175.97550565 -55.06682779 167.93425945 -42 157 C-41.13117188 156.29359375 -40.26234375 155.5871875 -39.3671875 154.859375 C-25.72510547 143.26151933 -16.42486422 128.009871 -14.71484375 109.99609375 C-14.523902 103.6286016 -15.48228066 97.99615829 -17.24609375 91.88671875 C-17.49488281 90.93410156 -17.74367188 89.98148437 -18 89 C-18.42152344 87.39898437 -18.42152344 87.39898437 -18.8515625 85.765625 C-19.06039296 80.46792588 -17.12569686 76.80898774 -14.9375 72.0625 C-5.04224099 49.19632439 -1.37772965 24.75162585 0 0 Z " fill="#B5D7E0" transform="translate(421,159)"/>
<path d="M0 0 C5.15427325 4.61913013 8.59092319 11.6621363 9.0625 18.5 C8.87552432 27.0229749 5.70456927 32.61936046 0.140625 38.9296875 C-5.72525045 43.8310398 -12.425559 44.58942188 -19.75 45.6875 C-47.08601459 50.18641149 -72.51696229 59.39353024 -96.1875 73.875 C-96.84540527 74.27686523 -97.50331055 74.67873047 -98.18115234 75.09277344 C-107.29509497 80.74091466 -115.51305323 87.17334644 -123.47900391 94.33837891 C-125.18865625 95.87603993 -126.91222582 97.39699045 -128.63671875 98.91796875 C-135.54168438 105.07526927 -141.53598305 111.52293651 -147.1875 118.875 C-147.97511719 119.84695312 -148.76273437 120.81890625 -149.57421875 121.8203125 C-170.10101236 147.5351968 -184.55102638 178.73517879 -190.33984375 211.12817383 C-191.84700467 219.51387327 -193.99453498 224.68203498 -200 230.6875 C-207.28860509 235.68948388 -214.35596198 237.09675427 -223.1875 235.875 C-230.38271587 233.40336096 -235.43395411 228.59983442 -239.21875 222.10546875 C-247.80582632 203.22185183 -234.78941365 174.60841 -228.25390625 156.68701172 C-216.224413 124.96638369 -197.68915972 96.27601128 -174.1875 71.875 C-173.55537598 71.21564453 -172.92325195 70.55628906 -172.27197266 69.87695312 C-163.12752521 60.38869695 -153.83015991 51.6487956 -143.1875 43.875 C-142.03644983 43.01693848 -140.88540823 42.15886549 -139.734375 41.30078125 C-131.54474019 35.26322604 -123.04211724 29.88042698 -114.1875 24.875 C-113.48028809 24.4728125 -112.77307617 24.070625 -112.04443359 23.65625 C-85.92150627 8.94881786 -28.97498949 -19.31665966 0 0 Z " fill="#C2FFF1" transform="translate(244.1875,7.125)"/>
<path d="M0 0 C4.41640855 1.62963851 7.4235699 3.85029325 10.8125 7.0625 C11.33730957 7.55419678 11.86211914 8.04589355 12.40283203 8.55249023 C25.87418015 21.31992636 35.52693585 35.38123417 36.3125 54.4375 C36.12603307 71.1366495 28.72321669 84.72975797 18 97 C17.49210937 97.59167969 16.98421875 98.18335938 16.4609375 98.79296875 C1.18168328 115.2867278 -20.96079446 125.28218954 -42 132 C-42.83837402 132.26796387 -43.67674805 132.53592773 -44.54052734 132.81201172 C-50.96631731 134.81455713 -57.4387077 136.5027555 -64 138 C-64.93021973 138.21317871 -65.86043945 138.42635742 -66.81884766 138.64599609 C-98.0035724 145.36688789 -134.9336607 145.22445599 -166 138 C-166.84433594 137.81276367 -167.68867188 137.62552734 -168.55859375 137.43261719 C-174.11291483 136.17834577 -179.55968615 134.67758404 -185 133 C-186.19302734 132.63914307 -186.19302734 132.63914307 -187.41015625 132.27099609 C-205.70649774 126.63494003 -223.31817209 118.44374439 -238 106 C-238.86625 105.28328125 -239.7325 104.5665625 -240.625 103.828125 C-253.95815521 92.36486351 -263.29246978 78.64483678 -266 61 C-266.67150259 50.34300518 -266.67150259 50.34300518 -265 47 C-264.34 47 -263.68 47 -263 47 C-261.95531036 48.69038702 -260.99184776 50.43105545 -260.0625 52.1875 C-245.74865751 77.22199818 -219.03602725 93.70269026 -191.61328125 101.28125 C-188.10378977 102.17352774 -184.57353662 102.91065335 -181.01806641 103.59423828 C-179.11883436 103.97610662 -177.23593154 104.43676293 -175.35546875 104.90234375 C-148.11763379 110.98948091 -116.51938601 107.87415787 -90 100 C-89.28392578 99.79004395 -88.56785156 99.58008789 -87.83007812 99.36376953 C-76.60716155 96.01295511 -66.26454912 91.63018179 -56 86 C-55.07703125 85.49597656 -54.1540625 84.99195313 -53.203125 84.47265625 C-47.317592 81.08941196 -41.94539431 77.07678208 -36.56640625 72.953125 C-34.75542924 71.5749081 -32.89355335 70.2623689 -31 69 C-30.34 69.495 -29.68 69.99 -29 70.5 C-25.26903823 72.36548089 -22.05418028 72.8710153 -18 72 C-14.98215009 70.24392354 -12.58531783 68.17063565 -11 65 C-10.87851695 63.37834248 -10.82456348 61.75115673 -10.8125 60.125 C-10.79832031 59.26132812 -10.78414062 58.39765625 -10.76953125 57.5078125 C-10.83672591 54.99216386 -10.83672591 54.99216386 -12.07421875 52.9921875 C-13.36488277 50.21480923 -12.90941119 48.90671615 -12 46 C-10.36533806 42.52948696 -8.57717643 39.15923698 -6.7890625 35.765625 C-2.77759306 27.62702263 -1.43269281 19.95590002 -0.8125 10.9375 C-0.6897168 9.35291992 -0.6897168 9.35291992 -0.56445312 7.73632812 C-0.36613074 5.15813718 -0.1782045 2.57964609 0 0 Z " fill="#145956" transform="translate(371,211)"/>
<path d="M0 0 C7.29397024 5.2413957 12.19451962 12.01111171 13.76953125 20.9765625 C14.24765542 28.69326414 11.74415103 35.1047775 7.3125 41.375 C2.80889416 46.09189946 -2.04556255 48.70783094 -8 51.1875 C-18.45233986 55.86753404 -26.37083563 61.42634561 -30.73046875 72.41015625 C-32.83799516 78.93918704 -34.66965263 85.55225673 -34.8125 92.4375 C-35.32221975 97.62145835 -39.19754728 101.2210437 -42.34375 105.12890625 C-45.50434221 109.25312453 -47.27920008 113.92254877 -49.10546875 118.7578125 C-50.6875 121.375 -50.6875 121.375 -53.53125 122.72265625 C-61.42784498 124.35474952 -69.42826454 124.12427546 -76.6875 120.375 C-83.64843471 115.69309017 -87.07864715 110.20155854 -89.6875 102.375 C-91.46858957 77.90691699 -85.09515214 49.32746535 -69.08203125 30.15625 C-66.40613932 27.09951952 -63.57411705 24.23307705 -60.6875 21.375 C-59.91921875 20.58480469 -59.1509375 19.79460937 -58.359375 18.98046875 C-51.10151325 11.93244314 -42.5474945 7.11672581 -33.6875 2.375 C-32.63175781 1.80007812 -31.57601562 1.22515625 -30.48828125 0.6328125 C-21.07913725 -3.91130343 -9.3761053 -5.29589256 0 0 Z " fill="#F7FEFB" transform="translate(158.6875,129.625)"/>
<path d="M0 0 C5.15427325 4.61913013 8.59092319 11.6621363 9.0625 18.5 C8.87552432 27.0229749 5.70456927 32.61936046 0.140625 38.9296875 C-5.72525045 43.8310398 -12.425559 44.58942188 -19.75 45.6875 C-51.98190506 50.99216823 -81.45184559 63.10761906 -108.1875 81.875 C-108.1875 78.875 -108.1875 78.875 -106.6875 75.3125 C-104.49218108 69.53923342 -104.11954039 64.18270825 -106.03125 58.26171875 C-109.33633443 50.90343956 -114.09383918 45.61859628 -121.5625 42.4375 C-127.77093089 41.47412279 -134.06707164 41.24288577 -140.1875 42.875 C-136.15392846 38.47328502 -131.74303213 35.39696997 -126.6875 32.25 C-125.85508789 31.73074951 -125.02267578 31.21149902 -124.16503906 30.67651367 C-96.22303959 13.49286144 -32.28095485 -21.52063656 0 0 Z " fill="#93FFE9" transform="translate(244.1875,7.125)"/>
<path d="M0 0 C-2.59303304 9.21967304 -11.18376581 15.30795381 -19 20 C-38.03841343 30.34440111 -60.61753682 34.18787225 -82.02416992 34.18530273 C-84.03373295 34.18746899 -86.04325708 34.20592114 -88.05273438 34.22460938 C-115.08701962 34.26438517 -143.04013402 28.39673186 -163.89453125 10.3203125 C-166.75443787 7.16857867 -168.84366783 3.65636514 -171 0 C-155.36867403 -2.85262875 -139.85996943 -4.99192782 -124 -6 C-123.10055664 -6.05784668 -122.20111328 -6.11569336 -121.27441406 -6.17529297 C-34.3876546 -11.46255153 -34.3876546 -11.46255153 0 0 Z " fill="#B4D7E0" transform="translate(341,118)"/>
<path d="M0 0 C2.63717696 1.31858848 2.74631271 2.47893059 3.8125 5.1875 C6.94115712 12.434022 10.86432761 16.55958653 18 20 C21.54339724 20.89167727 24.85236188 21.13524617 28.5 21.125 C29.4178125 21.12757813 30.335625 21.13015625 31.28125 21.1328125 C33.95004454 21.00244035 36.39865153 20.59378606 39 20 C38.835 21.2375 38.67 22.475 38.5 23.75 C36.59917984 41.96382896 40.55222073 57.39763324 51.6875 72.0625 C78.57220188 104.1719647 122.83567958 116.75783825 163 121 C168.8042052 121.50114828 174.62084029 121.80968157 180.4375 122.125 C181.95901402 122.21172094 183.48049871 122.29895822 185.00195312 122.38671875 C188.66765169 122.59706681 192.33369098 122.80053842 196 123 C174.38187418 134.93305559 135.21318489 130.54769008 112 126 C111.1234375 125.82839355 110.246875 125.65678711 109.34375 125.47998047 C81.01032233 119.71960518 54.38647875 107.9918398 31 91 C30.13632813 90.37609375 29.27265625 89.7521875 28.3828125 89.109375 C26.20003554 87.46229788 24.0951906 85.75737256 22 84 C21.46391113 83.55124512 20.92782227 83.10249023 20.37548828 82.64013672 C18.51590488 81.07868895 16.66276106 79.50998161 14.8125 77.9375 C14.22952148 77.4425 13.64654297 76.9475 13.04589844 76.4375 C11.90374473 75.45609385 10.77320571 74.46100599 9.65478516 73.45263672 C8.03737203 71.98534296 8.03737203 71.98534296 6.31005859 70.78564453 C2.56762822 67.80780891 1.45658953 64.98146306 0.6328125 60.3046875 C-0.59172851 48.63932309 -0.20914497 36.8370266 -0.125 25.125 C-0.11495041 22.68359742 -0.10582806 20.24219084 -0.09765625 17.80078125 C-0.07579908 11.86709903 -0.04247827 5.93356857 0 0 Z " fill="#CAE7E9" transform="translate(68,231)"/>
<path d="M0 0 C3.06828347 3.06828347 2.89909353 6.93331811 3.4362793 11.08032227 C3.56497406 12.0220076 3.69366882 12.96369293 3.82626343 13.93391418 C4.25099638 17.06030198 4.66306199 20.1882061 5.07421875 23.31640625 C5.36478459 25.4892295 5.65579093 27.66199388 5.94721985 29.83470154 C6.55718438 34.39793512 7.16071689 38.96196442 7.76000977 43.52661133 C8.52699713 49.36343785 9.3113313 55.19777735 10.10078716 61.03160191 C10.70638458 65.52343648 11.3018425 70.01657199 11.8943882 74.51014519 C12.17935308 76.66066235 12.46762476 78.8107441 12.75931358 80.96035957 C13.16725471 83.97694497 13.56127378 86.99504673 13.9519043 90.01391602 C14.07391708 90.89478882 14.19592987 91.77566162 14.32164001 92.68322754 C15.25969837 100.12626851 15.79624375 107.782647 11 114 C8.0083547 117.61060639 5.50623536 118.79981853 1 120 C-2.14141846 120.0402832 -2.14141846 120.0402832 -5.47363281 119.73828125 C-6.70327759 119.62822754 -7.93292236 119.51817383 -9.1998291 119.40478516 C-15.28738038 118.75635369 -21.35509569 118.00708612 -27.421875 117.1875 C-29.38269012 116.92682739 -29.38269012 116.92682739 -31.38311768 116.66088867 C-34.11613562 116.29715427 -36.84873668 115.93047782 -39.58105469 115.56152344 C-43.08399488 115.08871502 -46.58784741 114.62309144 -50.09202194 114.15953064 C-53.45245574 113.71410825 -56.81213212 113.26310486 -60.171875 112.8125 C-61.43006042 112.64580811 -62.68824585 112.47911621 -63.98455811 112.30737305 C-65.71841766 112.07207886 -65.71841766 112.07207886 -67.48730469 111.83203125 C-68.50653015 111.69514893 -69.52575562 111.5582666 -70.5758667 111.41723633 C-73 111 -73 111 -75 110 C-75 109.34 -75 108.68 -75 108 C-74.03513672 107.54173828 -74.03513672 107.54173828 -73.05078125 107.07421875 C-64.6372538 102.81344522 -57.92545756 97.30081772 -51 91 C-50.26910156 90.34128906 -49.53820312 89.68257813 -48.78515625 89.00390625 C-24.28767612 65.70875643 -7.60030676 32.55131381 0 0 Z " fill="#1FC9B1" transform="translate(482,377)"/>
<path d="M0 0 C1.125 3.75 1.125 3.75 0 6 C-0.60102645 12.7314962 0.59064303 18.11981691 4 24 C8.90075077 29.78982503 14.69063126 33.24151875 22.1875 34.3125 C30.62785389 34.78140855 37.33832705 30.78273955 44 26 C42.61131134 30.24321536 41.20116581 34.46066752 39.640625 38.64453125 C35.17229096 50.67094244 32.05791557 62.90944687 29.49511719 75.47558594 C27.72086931 84.01787208 24.37295386 89.9401297 17 95 C10.74907664 98.48366066 4.01856997 98.97094841 -3 98 C-10.19521587 95.52836096 -15.24645411 90.72483442 -19.03125 84.23046875 C-27.65477125 65.26670674 -14.5057449 36.70763519 -8.02001953 18.71044922 C-5.62620057 12.34946835 -2.89304205 6.14771436 0 0 Z " fill="#93FFE9" transform="translate(24,145)"/>
<path d="M0 0 C7.29397024 5.2413957 12.19451962 12.01111171 13.76953125 20.9765625 C14.24765542 28.69326414 11.74415103 35.1047775 7.3125 41.375 C2.81065881 46.09005123 -2.04466105 48.71346395 -8 51.1875 C-15.54332086 54.50036186 -20.9937651 58.33152709 -26.6875 64.375 C-27.68139672 61.39330983 -27.68204606 59.87776207 -27.5 56.8125 C-27.47993681 49.92079316 -29.15635419 44.41134396 -33.60546875 39.07421875 C-39.4585729 33.40758518 -45.30923265 30.54025402 -53.484375 30.2890625 C-61.40803112 30.704945 -67.60172942 33.30352451 -73.6875 38.375 C-72.26171416 33.93562135 -69.84247077 30.95314241 -66.6875 27.625 C-65.9462085 26.83730225 -65.9462085 26.83730225 -65.18994141 26.03369141 C-63.70113492 24.46865803 -62.19745087 22.91961551 -60.6875 21.375 C-59.91148438 20.57320312 -59.13546875 19.77140625 -58.3359375 18.9453125 C-51.06769642 11.92683915 -42.53766869 7.1114672 -33.6875 2.375 C-32.63175781 1.80007812 -31.57601562 1.22515625 -30.48828125 0.6328125 C-21.07913725 -3.91130343 -9.3761053 -5.29589256 0 0 Z " fill="#E9F3F3" transform="translate(158.6875,129.625)"/>
<path d="M0 0 C10.50045176 0.13098277 22.18703134 0.97901045 32.1875 4.3125 C29.59446696 13.53217304 21.00373419 19.62045381 13.1875 24.3125 C-5.85091343 34.65690111 -28.43003682 38.50037225 -49.83666992 38.49780273 C-51.84623295 38.49996899 -53.85575708 38.51842114 -55.86523438 38.53710938 C-79.97400755 38.57258084 -104.48042655 33.80342873 -124.8125 20.3125 C-122.8125 19.3125 -122.8125 19.3125 -120.7734375 19.984375 C-119.92007813 20.34015625 -119.06671875 20.6959375 -118.1875 21.0625 C-91.09356384 31.05360578 -56.95858724 29.09695992 -30.6328125 17.5234375 C-20.8901076 13.00833022 -9.8582323 0.03508268 0 0 Z " fill="#9FC3CC" transform="translate(308.8125,113.6875)"/>
<path d="M0 0 C8.8622781 5.35429302 15.71101101 13.5891263 18.5625 23.640625 C19.67369436 29.63313746 19.97050913 34.90967264 17.375 40.5 C13.75599449 44.30947949 10.72680597 45.71743175 5.5625 46.5625 C1.47675954 45.91738308 -0.50499506 44.96877407 -3.50390625 42.18359375 C-6.03499611 38.4893921 -6.53255561 34.38982659 -7.19921875 30.0234375 C-8.12737479 26.5190825 -9.1506108 25.19500868 -12 23 C-16.06076838 21.42172565 -19.22427005 21.6653714 -23.1875 23.375 C-25.81480163 25.82714819 -26.89760774 27.44419378 -28.5 30.5625 C-30.13484083 33.72805167 -30.89840208 34.92711454 -33.875 37.0625 C-37.64729103 38.19418731 -40.0826094 38.61853536 -44 38 C-47.26678787 35.87626316 -50.24011654 33.51976692 -52 30 C-53.08396888 22.865015 -51.61262715 18.13769073 -47.6484375 12.19140625 C-36.06507835 -3.20732475 -17.48358002 -8.9816562 0 0 Z " fill="#30FCD5" transform="translate(203,246)"/>
<path d="M0 0 C6.88499052 5.60406205 13.37514387 11.69531399 15.203125 20.73828125 C15.52587042 25.57212739 14.94299228 28.48879429 11.8125 32.25 C8.8302086 35.31153103 7.33790106 36.13329991 2.9375 36.5 C-1.55290885 36.40255894 -3.93075204 35.26864814 -7.3125 32.1875 C-8.67921563 29.92055252 -9.88713511 27.60150272 -11.1015625 25.25 C-12.74873815 22.44448793 -14.26622422 21.30199114 -17.3125 20.1875 C-21.45192795 19.75630959 -24.68920857 20.07391333 -28.3125 22.1875 C-30.00244055 25.65823812 -30.63853977 28.88134966 -31.125 32.6875 C-31.77446184 36.33826277 -32.29342678 38.15860117 -34.375 41.3125 C-38.33019645 43.83709348 -41.64845004 44.45943224 -46.3125 44.1875 C-50.13839474 42.96032621 -51.93056406 41.58953783 -54.6875 38.6875 C-57.79226338 32.00031734 -56.98358357 25.45663457 -54.75 18.5625 C-50.47849992 8.11444058 -43.1661343 1.01223351 -33.05859375 -3.91015625 C-21.70984548 -8.27505943 -10.39188007 -5.68612306 0 0 Z " fill="#30FCD5" transform="translate(346.3125,247.8125)"/>
<path d="M0 0 C0.33 0 0.66 0 1 0 C1.20753906 0.99 1.41507812 1.98 1.62890625 3 C3.69261764 12.11703372 5.93755665 18.71469701 13.87890625 24.328125 C20.07947676 27.88562404 27.21533566 28.80942503 34.1875 27.3125 C41.86181767 24.96542498 46.12594102 21.12652615 51 15 C51.66 14.34 52.32 13.68 53 13 C52.56538591 23.26250056 51.08406399 29.02120625 44.30859375 37 C41.13878047 41.11914823 39.40885895 45.54606868 37.58203125 50.3828125 C36 53 36 53 33.15625 54.34765625 C25.25965502 55.97974952 17.25923546 55.74927546 10 52 C3.03906529 47.31809017 -0.39114715 41.82655854 -3 34 C-3.69440624 22.32863362 -2.39893108 11.40920198 0 0 Z " fill="#E8F3F3" transform="translate(72,198)"/>
</svg>
