<?xml version="1.0" encoding="UTF-8"?>
<svg version="1.1" xmlns="http://www.w3.org/2000/svg" width="512" height="512">
<path d="M0 0 C8.78344442 6.32643401 15.45573743 14.73339542 17.58203125 25.4921875 C18.22100519 32.63856359 18.73119935 40.27241468 16.30078125 47.08203125 C15.21365093 50.5941456 15.21365093 50.5941456 17.15234375 54.04296875 C17.98057037 55.31240967 18.83402648 56.56561436 19.70703125 57.8046875 C20.167146 58.4970752 20.62726074 59.18946289 21.10131836 59.90283203 C22.57540854 62.11310063 24.07848261 64.30188681 25.58203125 66.4921875 C26.50031652 67.86654259 27.41572286 69.24282596 28.328125 70.62109375 C30.27586339 73.56101809 32.23417237 76.49349233 34.19921875 79.421875 C39.94225465 88.00385641 45.56032098 96.66864746 51.2028656 105.31684875 C53.91188905 109.46816207 56.62676092 113.61561545 59.34375 117.76171875 C60.50620911 119.53642249 61.66859563 121.31117376 62.83096313 123.0859375 C63.9325424 124.76730946 65.034987 126.44811438 66.13745117 128.12890625 C66.80752197 129.15242187 67.47759277 130.1759375 68.16796875 131.23046875 C68.75626465 132.12805908 69.34456055 133.02564941 69.95068359 133.95043945 C71.58203125 136.4921875 71.58203125 136.4921875 72.83790606 139.11249113 C74.35817397 141.71886202 74.35817397 141.71886202 77.07651645 142.11383867 C78.08066205 142.11226747 79.08480765 142.11069627 80.1193819 142.10907745 C81.27814219 142.1194326 82.43690247 142.12978774 83.6307767 142.14045668 C84.90974029 142.12637282 86.18870389 142.11228896 87.50642395 142.09777832 C88.87417665 142.10050765 90.24192644 142.10544524 91.60966414 142.11240816 C95.37687805 142.12525176 99.14340544 142.10693629 102.91054642 142.08376336 C106.96996146 142.06426227 111.02931753 142.07360662 115.08876038 142.07969666 C122.12621293 142.08650017 129.16345864 142.07556024 136.20087624 142.0532074 C146.38238777 142.02133065 156.56370539 142.02164396 166.74525353 142.03084785 C183.27168056 142.04537447 199.79804214 142.04126172 216.32446289 142.02197266 C217.31407663 142.02082421 218.30369036 142.01967577 219.3232924 142.01849252 C227.35168037 142.00903642 235.38006714 141.99868183 243.40845394 141.98828411 C250.4217976 141.97923799 257.43514157 141.97054881 264.44848633 141.96240234 C265.92973924 141.96067189 265.92973924 141.96067189 267.44091646 141.95890647 C283.90081894 141.94028427 300.36066471 141.94119222 316.82057017 141.95606375 C326.97725785 141.96428868 337.13363808 141.95476293 347.29027929 141.92246807 C354.24953477 141.90145111 361.20865428 141.89799718 368.16793326 141.90841639 C372.18496928 141.91379106 376.20156371 141.91084668 380.21853638 141.88607597 C383.89576381 141.86352763 387.57224742 141.86392267 391.2494901 141.88256162 C393.21038369 141.8864647 395.17127825 141.86562384 397.13205558 141.84391832 C406.6474517 141.92838145 406.6474517 141.92838145 410.35111523 144.90503693 C414.90955998 150.19137798 413.82283804 155.77231488 413.58203125 162.4921875 C413.22538065 166.75039938 412.66214086 170.9558319 412.01953125 175.1796875 C411.84462158 176.33597656 411.66971191 177.49226562 411.48950195 178.68359375 C403.72999863 226.92134894 381.62879545 270.00399929 349.58203125 306.4921875 C348.71449219 307.48347656 347.84695313 308.47476562 346.953125 309.49609375 C342.73461926 314.22983683 338.47127801 318.69228397 333.61328125 322.76953125 C331.36900413 324.67285089 329.23502028 326.67381938 327.08203125 328.6796875 C310.34165905 343.69267683 290.9315707 356.10566629 270.55664062 365.57275391 C269.21774861 366.19617964 267.88319567 366.82899396 266.55273438 367.47021484 C246.61168353 377.08030343 225.29216601 383.3538685 203.58203125 387.4921875 C202.77411133 387.65589844 201.96619141 387.81960938 201.13378906 387.98828125 C171.10546688 393.85574509 136.43089043 392.78674712 106.58203125 386.4921875 C105.04313232 386.17072754 105.04313232 386.17072754 103.47314453 385.84277344 C58.04744012 376.03064989 17.28277767 354.98139897 -17.0078125 323.6796875 C-19.34378129 321.55952133 -21.7212375 319.4952144 -24.10546875 317.4296875 C-27.48081932 314.42480224 -30.51509207 311.30939715 -33.42578125 307.85546875 C-34.95991655 306.03556314 -36.51505759 304.24963811 -38.09765625 302.47265625 C-73.02744859 262.98303497 -99.54501439 205.89207732 -98.8125 152.21875 C-98.19571762 147.95623416 -96.6497683 146.2623014 -93.41796875 143.4921875 C-90.05824423 141.81232524 -86.25893478 142.31127223 -82.56201172 142.28686523 C-81.64488403 142.27696564 -80.72775635 142.26706604 -79.78283691 142.25686646 C-76.7419699 142.22520035 -73.70108724 142.20047384 -70.66015625 142.17578125 C-68.55550727 142.15521614 -66.45086246 142.13421979 -64.34622192 142.11280823 C-58.79945244 142.05754185 -53.25264541 142.00815272 -47.70581055 141.95996094 C-42.04863126 141.90977922 -36.39150668 141.8540758 -30.734375 141.79882812 C-19.62895296 141.69119071 -8.52348347 141.58975816 2.58203125 141.4921875 C2.07210632 140.42517105 1.5621814 139.3581546 1.0368042 138.25880432 C-0.89175965 134.220714 -2.8153532 130.18027145 -4.73760986 126.13917542 C-5.56320372 124.40525414 -6.39006529 122.67193579 -7.21832275 120.93928528 C-13.06068075 108.71456962 -18.60457011 96.42830912 -23.59388733 83.8288269 C-25.56634472 78.98569577 -27.01428554 76.22051078 -31.75024414 73.76318359 C-35.44566791 72.41602303 -35.44566791 72.41602303 -39.09301758 71.48364258 C-48.47528838 68.68597742 -55.1454438 60.40790567 -59.73828125 52.10546875 C-64.0330167 42.2996567 -64.15314413 29.57967535 -60.85546875 19.4296875 C-56.23568113 8.88171087 -48.02844538 0.67447512 -37.48046875 -3.9453125 C-25.20446722 -7.93371806 -10.94613541 -6.8258615 0 0 Z " fill="#E0EAF3" transform="translate(98.41796875,113.5078125)"/>
<path d="M0 0 C8.78344442 6.32643401 15.45573743 14.73339542 17.58203125 25.4921875 C18.22100519 32.63856359 18.73119935 40.27241468 16.30078125 47.08203125 C15.21365093 50.5941456 15.21365093 50.5941456 17.15234375 54.04296875 C17.98057037 55.31240967 18.83402648 56.56561436 19.70703125 57.8046875 C20.167146 58.4970752 20.62726074 59.18946289 21.10131836 59.90283203 C22.57540854 62.11310063 24.07848261 64.30188681 25.58203125 66.4921875 C26.50031652 67.86654259 27.41572286 69.24282596 28.328125 70.62109375 C30.27586339 73.56101809 32.23417237 76.49349233 34.19921875 79.421875 C39.94225465 88.00385641 45.56032098 96.66864746 51.2028656 105.31684875 C53.91188905 109.46816207 56.62676092 113.61561545 59.34375 117.76171875 C60.50620911 119.53642249 61.66859563 121.31117376 62.83096313 123.0859375 C63.9325424 124.76730946 65.034987 126.44811438 66.13745117 128.12890625 C66.80752197 129.15242187 67.47759277 130.1759375 68.16796875 131.23046875 C68.75626465 132.12805908 69.34456055 133.02564941 69.95068359 133.95043945 C71.58203125 136.4921875 71.58203125 136.4921875 72.83790606 139.11249113 C74.35817397 141.71886202 74.35817397 141.71886202 77.07651645 142.11383867 C78.08066205 142.11226747 79.08480765 142.11069627 80.1193819 142.10907745 C81.27814219 142.1194326 82.43690247 142.12978774 83.6307767 142.14045668 C84.90974029 142.12637282 86.18870389 142.11228896 87.50642395 142.09777832 C88.87417665 142.10050765 90.24192644 142.10544524 91.60966414 142.11240816 C95.37687805 142.12525176 99.14340544 142.10693629 102.91054642 142.08376336 C106.96996146 142.06426227 111.02931753 142.07360662 115.08876038 142.07969666 C122.12621293 142.08650017 129.16345864 142.07556024 136.20087624 142.0532074 C146.38238777 142.02133065 156.56370539 142.02164396 166.74525353 142.03084785 C183.27168056 142.04537447 199.79804214 142.04126172 216.32446289 142.02197266 C217.31407663 142.02082421 218.30369036 142.01967577 219.3232924 142.01849252 C227.35168037 142.00903642 235.38006714 141.99868183 243.40845394 141.98828411 C250.4217976 141.97923799 257.43514157 141.97054881 264.44848633 141.96240234 C265.92973924 141.96067189 265.92973924 141.96067189 267.44091646 141.95890647 C283.90081894 141.94028427 300.36066471 141.94119222 316.82057017 141.95606375 C326.97725785 141.96428868 337.13363808 141.95476293 347.29027929 141.92246807 C354.24953477 141.90145111 361.20865428 141.89799718 368.16793326 141.90841639 C372.18496928 141.91379106 376.20156371 141.91084668 380.21853638 141.88607597 C383.89576381 141.86352763 387.57224742 141.86392267 391.2494901 141.88256162 C393.21038369 141.8864647 395.17127825 141.86562384 397.13205558 141.84391832 C406.6474517 141.92838145 406.6474517 141.92838145 410.35111523 144.90503693 C414.90955998 150.19137798 413.82283804 155.77231488 413.58203125 162.4921875 C413.22538065 166.75039938 412.66214086 170.9558319 412.01953125 175.1796875 C411.84462158 176.33597656 411.66971191 177.49226562 411.48950195 178.68359375 C403.72999863 226.92134894 381.62879545 270.00399929 349.58203125 306.4921875 C348.71449219 307.48347656 347.84695313 308.47476562 346.953125 309.49609375 C342.73461926 314.22983683 338.47127801 318.69228397 333.61328125 322.76953125 C331.36900413 324.67285089 329.23502028 326.67381938 327.08203125 328.6796875 C310.34165905 343.69267683 290.9315707 356.10566629 270.55664062 365.57275391 C269.21774861 366.19617964 267.88319567 366.82899396 266.55273438 367.47021484 C246.61168353 377.08030343 225.29216601 383.3538685 203.58203125 387.4921875 C202.77411133 387.65589844 201.96619141 387.81960938 201.13378906 387.98828125 C171.10546688 393.85574509 136.43089043 392.78674712 106.58203125 386.4921875 C105.04313232 386.17072754 105.04313232 386.17072754 103.47314453 385.84277344 C58.04744012 376.03064989 17.28277767 354.98139897 -17.0078125 323.6796875 C-19.34378129 321.55952133 -21.7212375 319.4952144 -24.10546875 317.4296875 C-27.48081932 314.42480224 -30.51509207 311.30939715 -33.42578125 307.85546875 C-34.95991655 306.03556314 -36.51505759 304.24963811 -38.09765625 302.47265625 C-73.02744859 262.98303497 -99.54501439 205.89207732 -98.8125 152.21875 C-98.19571762 147.95623416 -96.6497683 146.2623014 -93.41796875 143.4921875 C-90.05824423 141.81232524 -86.25893478 142.31127223 -82.56201172 142.28686523 C-81.64488403 142.27696564 -80.72775635 142.26706604 -79.78283691 142.25686646 C-76.7419699 142.22520035 -73.70108724 142.20047384 -70.66015625 142.17578125 C-68.55550727 142.15521614 -66.45086246 142.13421979 -64.34622192 142.11280823 C-58.79945244 142.05754185 -53.25264541 142.00815272 -47.70581055 141.95996094 C-42.04863126 141.90977922 -36.39150668 141.8540758 -30.734375 141.79882812 C-19.62895296 141.69119071 -8.52348347 141.58975816 2.58203125 141.4921875 C2.07210632 140.42517105 1.5621814 139.3581546 1.0368042 138.25880432 C-0.89175965 134.220714 -2.8153532 130.18027145 -4.73760986 126.13917542 C-5.56320372 124.40525414 -6.39006529 122.67193579 -7.21832275 120.93928528 C-13.06068075 108.71456962 -18.60457011 96.42830912 -23.59388733 83.8288269 C-25.56634472 78.98569577 -27.01428554 76.22051078 -31.75024414 73.76318359 C-35.44566791 72.41602303 -35.44566791 72.41602303 -39.09301758 71.48364258 C-48.47528838 68.68597742 -55.1454438 60.40790567 -59.73828125 52.10546875 C-64.0330167 42.2996567 -64.15314413 29.57967535 -60.85546875 19.4296875 C-56.23568113 8.88171087 -48.02844538 0.67447512 -37.48046875 -3.9453125 C-25.20446722 -7.93371806 -10.94613541 -6.8258615 0 0 Z M-85.41796875 186.4921875 C-84.11919629 193.63543601 -82.78641835 200.30407852 -80.66796875 207.1796875 C-80.40483887 208.04053955 -80.14170898 208.9013916 -79.87060547 209.78833008 C-70.01030724 241.55681327 -54.1895009 270.27249372 -32.41796875 295.4921875 C-31.74894531 296.27207031 -31.07992187 297.05195313 -30.390625 297.85546875 C-19.44103806 310.31393732 -7.76783208 321.65062397 5.58203125 331.4921875 C6.12617676 331.90243164 6.67032227 332.31267578 7.23095703 332.73535156 C54.45412242 368.33240193 110.82822764 384.16352108 169.58203125 382.4921875 C170.37818848 382.47140137 171.1743457 382.45061523 171.99462891 382.42919922 C176.54619554 382.28887917 181.05247988 381.95485873 185.58203125 381.4921875 C186.28118652 381.42193359 186.9803418 381.35167969 187.70068359 381.27929688 C232.33135124 376.48595732 278.59003768 357.64490533 313.00976562 328.80419922 C314.5542673 327.51535574 316.12271443 326.25538279 317.69140625 324.99609375 C332.28484542 313.16880569 345.52806778 299.67925703 356.58203125 284.4921875 C357.43852191 283.34223919 358.29529558 282.19250161 359.15234375 281.04296875 C368.77448338 267.99506926 376.65791263 254.13452449 383.58203125 239.4921875 C383.88351074 238.8626416 384.18499023 238.2330957 384.49560547 237.58447266 C391.5279773 222.77160433 400.58203125 203.10003092 400.58203125 186.4921875 C240.20203125 186.4921875 79.82203125 186.4921875 -85.41796875 186.4921875 Z " fill="#2E4356" transform="translate(98.41796875,113.5078125)"/>
<path d="M0 0 C2.02660067 12.10363349 2.4009269 23.99665983 2.375 36.25 C2.37445618 37.21777374 2.37391235 38.18554749 2.37335205 39.18264771 C2.31285707 62.6544595 -0.55855253 84.65675867 -8 107 C-8.23444824 107.71687988 -8.46889648 108.43375977 -8.71044922 109.17236328 C-21.14419761 146.57890485 -48.48344874 177.779275 -83.42358398 195.84130859 C-106.29254772 207.22767539 -135.0978681 217.91626589 -161 217 C-161.46837811 215.14834522 -161.92385941 213.29342986 -162.375 211.4375 C-162.75785156 209.88869141 -162.75785156 209.88869141 -163.1484375 208.30859375 C-165.76080501 195.88690391 -166.34647539 183.66617485 -166.31567383 171.02270508 C-166.3125241 168.33307898 -166.33603665 165.64456862 -166.36132812 162.95507812 C-166.51625811 120.59538421 -152.04022405 81.14215609 -122.25 50.8125 C-92.34054729 21.18890755 -42.30108211 0 0 0 Z " fill="#97DF7D" transform="translate(478,36)"/>
<path d="M0 0 C0.7864251 0.00234117 1.57285019 0.00468233 2.38310635 0.00709444 C3.21464045 0.005641 4.04617455 0.00418756 4.90290666 0.00269008 C7.72557341 -0.00099707 10.54818707 0.00252897 13.37085354 0.00595194 C15.40040597 0.00480119 17.42995819 0.00321398 19.45950997 0.0012247 C25.06489992 -0.00297499 30.67027298 -0.00087507 36.27566302 0.00221092 C42.30980528 0.00446221 48.34394453 0.00098676 54.37808621 -0.00176901 C65.52525321 -0.00597046 76.67241476 -0.00558975 87.81958166 -0.00285754 C98.11591888 -0.00034613 108.41225411 0.00031666 118.70859158 -0.00088018 C119.39046033 -0.00095657 120.07232908 -0.00103295 120.77486052 -0.00111165 C123.54249605 -0.00142297 126.31013157 -0.00174137 129.07776709 -0.00207142 C155.06255023 -0.0051333 181.04732991 -0.00235238 207.03211252 0.00302548 C230.13925005 0.0077714 253.24638208 0.00734679 276.35351956 0.00256449 C302.28950503 -0.00278528 328.22548745 -0.00491619 354.16147339 -0.00182325 C356.92418873 -0.00150251 359.68690407 -0.00118967 362.44961941 -0.00088018 C363.12991553 -0.0008011 363.81021164 -0.00072203 364.51112279 -0.00064055 C374.80326491 0.00049893 385.09540484 -0.00083709 395.38754666 -0.00335974 C407.0852512 -0.00621252 418.78295047 -0.00542128 430.4806546 -0.00007899 C436.45532535 0.00255918 442.42998489 0.00356115 448.40465558 0.00027186 C453.86465704 -0.00268875 459.32463679 -0.00110227 464.78463626 0.00424941 C466.76913303 0.00537461 468.7536316 0.00478017 470.73812723 0.00237362 C473.41714649 -0.00062814 476.0960895 0.00241178 478.77510464 0.00709444 C479.56152974 0.00475328 480.34795483 0.00241211 481.15821099 0 C486.46495516 0.01878524 486.46495516 0.01878524 487.5791055 1.13293558 C487.70888856 3.02535378 487.75516503 4.92360681 487.7666055 6.82043558 C487.78078518 7.85555277 487.79496487 8.89066996 487.80957425 9.95715433 C487.47319329 16.05192117 486.44234747 22.09024179 485.5791055 28.13293558 C323.8791055 28.13293558 162.1791055 28.13293558 -4.4208945 28.13293558 C-6.6833945 12.29543558 -6.6833945 12.29543558 -6.6083945 6.82043558 C-6.60194919 5.75180277 -6.59550388 4.68316996 -6.58886325 3.58215433 C-6.27778099 -0.95385912 -4.00506436 0.01417745 0 0 Z " fill="#D58651" transform="translate(15.420894503593445,263.86706441640854)"/>
<path d="M0 0 C25.3380583 5.46618786 49.29484261 19.42360211 68 37 C68.60328125 37.52722656 69.2065625 38.05445313 69.828125 38.59765625 C78.36964065 46.40076985 84.49587361 56.98083539 88.9375 67.5625 C89.20755859 68.19720215 89.47761719 68.8319043 89.75585938 69.48583984 C94.23642207 80.84321554 95.53636232 92.50131632 95.4375 104.625 C95.43065186 105.93025635 95.42380371 107.2355127 95.41674805 108.58032227 C95.11915045 126.67135804 91.41680199 144.84949879 83 161 C77.08956463 160.42955584 72.10658152 158.73866319 66.625 156.5 C65.75157959 156.14470215 64.87815918 155.7894043 63.97827148 155.42333984 C50.00170665 149.61782628 37.60110385 142.73353188 26 133 C25.16855469 132.32066406 24.33710938 131.64132813 23.48046875 130.94140625 C9.99619822 119.52457072 0.37895689 103.73217024 -5 87 C-5.44279297 85.67935547 -5.44279297 85.67935547 -5.89453125 84.33203125 C-13.83811121 57.21429278 -10.2348466 25.98994573 0 0 Z " fill="#97DF7D" transform="translate(201,52)"/>
<path d="M0 0 C2.02660067 12.10363349 2.4009269 23.99665983 2.375 36.25 C2.37445618 37.21777374 2.37391235 38.18554749 2.37335205 39.18264771 C2.31285707 62.6544595 -0.55855253 84.65675867 -8 107 C-8.23444824 107.71687988 -8.46889648 108.43375977 -8.71044922 109.17236328 C-21.14419761 146.57890485 -48.48344874 177.779275 -83.42358398 195.84130859 C-106.29254772 207.22767539 -135.0978681 217.91626589 -161 217 C-161.46837811 215.14834522 -161.92385941 213.29342986 -162.375 211.4375 C-162.75785156 209.88869141 -162.75785156 209.88869141 -163.1484375 208.30859375 C-165.76080501 195.88690391 -166.34647539 183.66617485 -166.31567383 171.02270508 C-166.3125241 168.33307898 -166.33603665 165.64456862 -166.36132812 162.95507812 C-166.51625811 120.59538421 -152.04022405 81.14215609 -122.25 50.8125 C-92.34054729 21.18890755 -42.30108211 0 0 0 Z M-113 54 C-113.5372168 54.48807129 -114.07443359 54.97614258 -114.62792969 55.47900391 C-141.3225676 79.96361097 -155.65361335 115.12241991 -158 151 C-158.16304435 156.35479589 -158.19427474 161.70586145 -158.1875 167.0625 C-158.18756042 167.79211945 -158.18762085 168.52173889 -158.18768311 169.27346802 C-159.42887702 187.32119446 -159.42887702 187.32119446 -154 203 C-153.51926025 202.29375488 -153.51926025 202.29375488 -153.02880859 201.57324219 C-145.02694024 189.82660134 -136.93446401 178.14750202 -128.76611328 166.51611328 C-125.83978136 162.34708138 -122.92021901 158.1733148 -120 154 C-118.83336611 152.33331039 -117.66669943 150.66664373 -116.5 149 C-115.9225 148.175 -115.345 147.35 -114.75 146.5 C-113 144 -111.25 141.5 -109.5 139 C-108.92233887 138.1747583 -108.34467773 137.3495166 -107.74951172 136.49926758 C-106.58451636 134.83501172 -105.4194774 133.17078639 -104.25439453 131.5065918 C-100.71668957 126.45322207 -97.18023804 121.39898076 -93.64624023 116.34301758 C-92.47584194 114.67090478 -91.30351232 113.00014198 -90.12915039 111.33081055 C-87.25662938 107.24560076 -84.41470098 103.14493722 -81.62890625 99 C-81.09088379 98.21004639 -80.55286133 97.42009277 -79.99853516 96.60620117 C-78.9850167 95.11699162 -77.98266598 93.62009711 -76.99365234 92.11450195 C-73.63186278 87.21293863 -73.63186278 87.21293863 -70.16015625 86.04296875 C-69.44730469 86.02878906 -68.73445313 86.01460938 -68 86 C-67.30859375 87.6875 -67.30859375 87.6875 -67 90 C-68.16015625 92.3125 -68.16015625 92.3125 -70.0625 95 C-70.80371094 96.0621875 -71.54492188 97.124375 -72.30859375 98.21875 C-72.73382324 98.81558594 -73.15905273 99.41242188 -73.59716797 100.02734375 C-75.13212071 102.18578756 -76.64721087 104.35732669 -78.16015625 106.53125 C-81.14723471 110.81871729 -84.1485073 115.09604287 -87.15332031 119.37109375 C-90.10769262 123.57689505 -93.05354582 127.78864969 -96 132 C-97.16662294 133.66669728 -98.33328967 135.3333639 -99.5 137 C-100.0775 137.825 -100.655 138.65 -101.25 139.5 C-103 142 -104.75 144.5 -106.5 147 C-107.07766113 147.8252417 -107.65532227 148.6504834 -108.25048828 149.50073242 C-109.41548364 151.16498828 -110.5805226 152.82921361 -111.74560547 154.4934082 C-114.68820411 158.69670923 -117.63000904 162.90056181 -120.5703125 167.10546875 C-121.75518866 168.79949293 -122.94008436 170.49350344 -124.125 172.1875 C-124.70113037 173.0115332 -125.27726074 173.83556641 -125.87084961 174.68457031 C-128.69210397 178.71641522 -131.52190209 182.74174527 -134.37109375 186.75390625 C-134.90911621 187.51227783 -135.44713867 188.27064941 -136.00146484 189.05200195 C-137.00109026 190.45951331 -138.00254862 191.86572579 -139.00634766 193.27026367 C-142.18225506 197.74263274 -145.14061435 202.31917718 -148 207 C-109.18049834 203.21837857 -68.74812091 183.51184473 -43.20703125 153.80078125 C-25.10519207 130.82906675 -14.34939988 105.68584295 -9 77 C-8.83483887 76.1248877 -8.66967773 75.24977539 -8.49951172 74.34814453 C-6.18151422 61.45892783 -5.73865123 48.68438066 -5.75 35.625 C-5.75059418 34.86506744 -5.75118835 34.10513489 -5.75180054 33.32217407 C-5.77521677 25.49447859 -5.91303713 17.766525 -7 10 C-42.95100138 7.93681484 -87.05751657 30.05247592 -113 54 Z " fill="#2E4456" transform="translate(478,36)"/>
<path d="M0 0 C1.69130299 2.49308348 3.07799673 4.83259802 4.4375 7.5 C4.82929443 8.26610596 5.22108887 9.03221191 5.62475586 9.8215332 C13.69681146 26.14101495 17.84303041 44.82316611 12.375 62.75 C4.85774313 81.03238778 -9.01698966 93.26669636 -26.40625 102.1015625 C-29 103 -29 103 -31.12890625 102.96875 C-37.6571093 99.58880354 -40.68317461 88.68461612 -42.875 82 C-47.92934843 65.93319705 -48.19013715 48.78650206 -40.75 33.41796875 C-35.3019806 23.58986558 -13.98353696 -5.13891599 0 0 Z " fill="#98DF7E" transform="translate(334,9)"/>
<path d="M0 0 C0.7864251 0.00234117 1.57285019 0.00468233 2.38310635 0.00709444 C3.21464045 0.005641 4.04617455 0.00418756 4.90290666 0.00269008 C7.72557341 -0.00099707 10.54818707 0.00252897 13.37085354 0.00595194 C15.40040597 0.00480119 17.42995819 0.00321398 19.45950997 0.0012247 C25.06489992 -0.00297499 30.67027298 -0.00087507 36.27566302 0.00221092 C42.30980528 0.00446221 48.34394453 0.00098676 54.37808621 -0.00176901 C65.52525321 -0.00597046 76.67241476 -0.00558975 87.81958166 -0.00285754 C98.11591888 -0.00034613 108.41225411 0.00031666 118.70859158 -0.00088018 C119.39046033 -0.00095657 120.07232908 -0.00103295 120.77486052 -0.00111165 C123.54249605 -0.00142297 126.31013157 -0.00174137 129.07776709 -0.00207142 C155.06255023 -0.0051333 181.04732991 -0.00235238 207.03211252 0.00302548 C230.13925005 0.0077714 253.24638208 0.00734679 276.35351956 0.00256449 C302.28950503 -0.00278528 328.22548745 -0.00491619 354.16147339 -0.00182325 C356.92418873 -0.00150251 359.68690407 -0.00118967 362.44961941 -0.00088018 C363.12991553 -0.0008011 363.81021164 -0.00072203 364.51112279 -0.00064055 C374.80326491 0.00049893 385.09540484 -0.00083709 395.38754666 -0.00335974 C407.0852512 -0.00621252 418.78295047 -0.00542128 430.4806546 -0.00007899 C436.45532535 0.00255918 442.42998489 0.00356115 448.40465558 0.00027186 C453.86465704 -0.00268875 459.32463679 -0.00110227 464.78463626 0.00424941 C466.76913303 0.00537461 468.7536316 0.00478017 470.73812723 0.00237362 C473.41714649 -0.00062814 476.0960895 0.00241178 478.77510464 0.00709444 C479.56152974 0.00475328 480.34795483 0.00241211 481.15821099 0 C486.46495516 0.01878524 486.46495516 0.01878524 487.5791055 1.13293558 C487.5791055 3.77293558 487.5791055 6.41293558 487.5791055 9.13293558 C324.5591055 9.13293558 161.5391055 9.13293558 -6.4208945 9.13293558 C-6.4208945 0.0227292 -6.4208945 0.0227292 0 0 Z " fill="#D99C72" transform="translate(15.420894503593445,263.86706441640854)"/>
<path d="M0 0 C160.05 0 320.1 0 485 0 C484.34 2.64 483.68 5.28 483 8 C324.27 8 165.54 8 2 8 C0 3 0 3 0 0 Z " fill="#EFF4F9" transform="translate(13,300)"/>
<path d="M0 0 C25.3380583 5.46618786 49.29484261 19.42360211 68 37 C68.60328125 37.52722656 69.2065625 38.05445313 69.828125 38.59765625 C78.36964065 46.40076985 84.49587361 56.98083539 88.9375 67.5625 C89.20755859 68.19720215 89.47761719 68.8319043 89.75585938 69.48583984 C94.23642207 80.84321554 95.53636232 92.50131632 95.4375 104.625 C95.43065186 105.93025635 95.42380371 107.2355127 95.41674805 108.58032227 C95.11915045 126.67135804 91.41680199 144.84949879 83 161 C77.08956463 160.42955584 72.10658152 158.73866319 66.625 156.5 C65.75157959 156.14470215 64.87815918 155.7894043 63.97827148 155.42333984 C50.00170665 149.61782628 37.60110385 142.73353188 26 133 C25.16855469 132.32066406 24.33710938 131.64132813 23.48046875 130.94140625 C9.99619822 119.52457072 0.37895689 103.73217024 -5 87 C-5.44279297 85.67935547 -5.44279297 85.67935547 -5.89453125 84.33203125 C-13.83811121 57.21429278 -10.2348466 25.98994573 0 0 Z M5 11 C4.36734457 13.24807656 3.74393259 15.49813887 3.125 17.75 C2.77695313 19.00296875 2.42890625 20.2559375 2.0703125 21.546875 C-0.42170245 31.43251628 -1.36356989 41.06739445 -1.3125 51.25 C-1.30686035 52.43440674 -1.3012207 53.61881348 -1.29541016 54.83911133 C-0.94639639 80.11150929 7.26536233 101.76225205 25 120 C25.62390625 120.68578125 26.2478125 121.3715625 26.890625 122.078125 C34.79910239 130.51826473 44.59019242 136.42332833 54.6875 141.875 C55.70154907 142.42885376 55.70154907 142.42885376 56.73608398 142.99389648 C60.49727913 144.96357142 64.18404248 146.43362227 68.26489258 147.62158203 C69.15477371 147.88246613 70.04465485 148.14335022 70.96150208 148.41213989 C71.63420639 148.60613373 72.30691071 148.80012756 73 149 C68.383427 139.10199401 63.67667362 129.26336142 58.7109375 119.53515625 C58.27243469 118.67312592 57.83393188 117.81109558 57.38214111 116.92294312 C55.58656815 113.394399 53.78971868 109.8666955 51.97509766 106.34790039 C50.62613327 103.72822385 49.29231456 101.10130452 47.9609375 98.47265625 C47.54653412 97.67795425 47.13213074 96.88325226 46.70516968 96.06446838 C46.33372833 95.32526657 45.96228699 94.58606476 45.57958984 93.82446289 C45.24921722 93.18005753 44.9188446 92.53565216 44.57846069 91.87171936 C43.86644822 89.56786787 44.23449029 88.25152094 45 86 C47.29814148 86.16014099 47.29814148 86.16014099 50 87 C51.70222473 89.32215881 51.70222473 89.32215881 53.22973633 92.43774414 C53.80996048 93.59887222 54.39018463 94.76000031 54.98799133 95.95631409 C55.60305858 97.23240822 56.21772927 98.50869355 56.83203125 99.78515625 C57.47349844 101.08487927 58.11656168 102.3838157 58.76115417 103.68199158 C60.45234655 107.09871793 62.12164115 110.52570164 63.78662109 113.95526123 C65.48985014 117.45383231 67.21354142 120.94228415 68.93554688 124.43164062 C72.31049031 131.2780126 75.66236763 138.13534812 79 145 C81.17933537 142.82066463 81.49135799 141.83764025 82.25390625 138.9296875 C82.46853516 138.115 82.68316406 137.3003125 82.90429688 136.4609375 C83.12150391 135.60757813 83.33871094 134.75421875 83.5625 133.875 C83.78357422 133.04484375 84.00464844 132.2146875 84.23242188 131.359375 C90.49986171 107.19848911 87.98391638 81.12277336 75.375 59.4375 C70.96006384 52.55319276 65.76150278 46.76150278 60 41 C59.27039063 40.27039063 58.54078125 39.54078125 57.7890625 38.7890625 C46.01976841 27.71980077 21.77907216 11 5 11 Z " fill="#2D4456" transform="translate(201,52)"/>
<path d="M0 0 C1.10971856 3.32915567 0.89454217 4.22620561 -0.00390625 7.5078125 C-0.24657227 8.40306641 -0.48923828 9.29832031 -0.73925781 10.22070312 C-1.1467627 11.65833008 -1.1467627 11.65833008 -1.5625 13.125 C-1.84061523 14.11693359 -2.11873047 15.10886719 -2.40527344 16.13085938 C-12.22451207 50.59250368 -28.54017622 81.82462402 -52 109 C-52.66902344 109.77988281 -53.33804687 110.55976563 -54.02734375 111.36328125 C-64.45789915 123.23119438 -75.54606177 134.28034715 -88.24951172 143.69384766 C-90.00889686 145.00663852 -91.74148179 146.34951419 -93.47265625 147.69921875 C-131.68525288 177.09917971 -181.87957465 194.74366831 -230 196 C-230.95729004 196.02723145 -231.91458008 196.05446289 -232.90087891 196.08251953 C-293.98674491 197.57333345 -351.07087434 178.9612191 -399 141 C-399.54785156 140.56929199 -400.09570312 140.13858398 -400.66015625 139.69482422 C-415.84486823 127.64872132 -429.59635189 113.66750217 -441 98 C-441.85649066 96.85005169 -442.71326433 95.70031411 -443.5703125 94.55078125 C-449.61009488 86.35951306 -454.9605059 77.83700569 -460 69 C-460.34272949 68.40638672 -460.68545898 67.81277344 -461.03857422 67.20117188 C-468.92657337 53.44154099 -474.61041679 38.77028302 -479.4375 23.6875 C-479.6845166 22.91760742 -479.9315332 22.14771484 -480.18603516 21.35449219 C-481.56055171 16.90470303 -482.46813571 12.62783066 -483 8 C-482.34 8 -481.68 8 -481 8 C-480.75467529 8.75804932 -480.50935059 9.51609863 -480.2565918 10.29711914 C-470.32718582 40.70434876 -457.57417449 69.15025487 -437 94 C-436.56429687 94.5357666 -436.12859375 95.0715332 -435.6796875 95.62353516 C-424.22949586 109.67046668 -411.48939844 123.06653291 -397 134 C-396.20988525 134.61270752 -396.20988525 134.61270752 -395.40380859 135.23779297 C-342.3188794 176.37062983 -275.78155303 193.20742166 -209.35986328 185.70166016 C-207.08701242 185.39782828 -204.82554897 185.05701815 -202.5625 184.6875 C-201.36463867 184.49510742 -201.36463867 184.49510742 -200.14257812 184.29882812 C-192.60801975 183.03206174 -185.34124344 181.11527353 -178 179 C-176.77639771 178.6760022 -176.77639771 178.6760022 -175.52807617 178.34545898 C-142.79167496 169.67555785 -112.2440898 154.4230539 -86 133 C-84.48986328 131.79537109 -84.48986328 131.79537109 -82.94921875 130.56640625 C-69.38266954 119.56563969 -56.49220192 106.98299122 -46 93 C-45.57702637 92.44812012 -45.15405273 91.89624023 -44.71826172 91.32763672 C-37.78143922 82.26774847 -31.58822346 72.94631978 -26 63 C-25.5992627 62.29423828 -25.19852539 61.58847656 -24.78564453 60.86132812 C-15.47896985 44.33389491 -8.12894383 26.91258386 -3.49487305 8.49389648 C-2.66093308 5.1850379 -1.91642162 2.87463244 0 0 Z " fill="#BEC6CD" transform="translate(498,300)"/>
<path d="M0 0 C3.83117959 1.27705986 4.32623465 2.6507508 6.44140625 6.0390625 C7.10197021 7.08634521 7.76253418 8.13362793 8.44311523 9.21264648 C8.78881561 9.76926971 9.13451599 10.32589294 9.49069214 10.89938354 C10.93389027 13.22294035 12.39516925 15.53491753 13.85554504 17.84770203 C14.58093309 18.99693307 15.30537298 20.14676313 16.02885437 21.29719543 C18.60270211 25.38770209 21.23278044 29.43267567 23.9375 33.4375 C28.90401367 40.81440815 33.75862622 48.26393566 38.61688232 55.71234131 C43.46385446 63.14244153 48.33012754 70.55754312 53.30859375 77.90039062 C56 81.89455203 56 81.89455203 56 83 C38.84 83 21.68 83 4 83 C0.1846303 74.89655994 -3.63071639 66.7931361 -7.44140625 58.6875 C-10.06337177 53.1108776 -12.69020307 47.53660894 -15.32505798 41.96606445 C-16.71951711 39.01664742 -18.11098977 36.06582747 -19.50192261 33.11474609 C-20.16699799 31.70557124 -20.83344022 30.29704066 -21.50125122 28.88916016 C-22.4314197 26.92773753 -23.35686739 24.96415449 -24.28125 23 C-24.80783203 21.88625 -25.33441406 20.7725 -25.87695312 19.625 C-27 17 -27 17 -27 15 C-25.94941406 14.64808594 -24.89882812 14.29617187 -23.81640625 13.93359375 C-14.42915009 10.67409876 -7.12367352 7.12367352 0 0 Z " fill="#E0EAF3" transform="translate(107,173)"/>
<path d="M0 0 C6.92358466 4.63327339 12.10677198 12.57292241 13.7421875 20.75 C14.84697738 30.85958406 12.59703981 39.83834541 6.5546875 48.125 C-1.50966028 55.65172459 -10.17697916 59.28006601 -21.1640625 59.0625 C-29.12511654 58.25835313 -36.63124014 54.42486912 -42.2578125 48.75 C-48.75677604 39.8825253 -51.36791826 31.74004704 -50.2578125 20.75 C-47.96405529 11.67923284 -43.21924008 4.32399552 -35.2578125 -0.625 C-23.13158322 -7.25568704 -12.08057116 -6.68820549 0 0 Z " fill="#D58650" transform="translate(94.2578125,121.25)"/>
<path d="M0 0 C1.69130299 2.49308348 3.07799673 4.83259802 4.4375 7.5 C4.82929443 8.26610596 5.22108887 9.03221191 5.62475586 9.8215332 C13.69681146 26.14101495 17.84303041 44.82316611 12.375 62.75 C4.85774313 81.03238778 -9.01698966 93.26669636 -26.40625 102.1015625 C-29 103 -29 103 -31.12890625 102.96875 C-37.6571093 99.58880354 -40.68317461 88.68461612 -42.875 82 C-47.92934843 65.93319705 -48.19013715 48.78650206 -40.75 33.41796875 C-35.3019806 23.58986558 -13.98353696 -5.13891599 0 0 Z M-22.875 23.4375 C-27.12239567 27.83878682 -30.1352727 32.62170551 -33 38 C-33.5775 39.010625 -34.155 40.02125 -34.75 41.0625 C-40.36066959 54.24757354 -38.48477247 67.74627943 -34 81 C-32.47803021 84.74671883 -30.82931899 88.39384249 -29 92 C-19.47551001 90.68044366 -10.12359661 81.91627162 -4.08984375 74.72265625 C0.25359145 68.88530066 2.93282173 62.95727742 5 56 C5.19078125 55.37222656 5.3815625 54.74445312 5.578125 54.09765625 C8.63110679 38.91755236 3.55713544 23.08831543 -4 10 C-9.97170497 10 -18.64858637 19.405487 -22.875 23.4375 Z " fill="#2D4456" transform="translate(334,9)"/>
<path d="M0 0 C1.67542976 0.28604898 3.34385343 0.61781233 5 1 C6.29381155 4.58181512 6.0658733 5.85666764 4.4453125 9.3828125 C3.68990533 10.64120907 2.91526078 11.8881937 2.125 13.125 C1.7122583 13.78806152 1.2995166 14.45112305 0.87426758 15.13427734 C-2.95547891 21.16316167 -7.25361214 26.66220918 -12 32 C-12.4630957 32.52335937 -12.92619141 33.04671875 -13.40332031 33.5859375 C-43.39139835 67.3151025 -88.22869599 92.59571994 -133.8828125 96.15234375 C-136 96 -136 96 -138 94 C-137.875 91.5 -137.875 91.5 -137 89 C-134.37145468 87.38869137 -131.92197555 86.65653848 -128.90234375 86.140625 C-128.11077881 85.99786133 -127.31921387 85.85509766 -126.50366211 85.70800781 C-125.65682861 85.55686523 -124.80999512 85.40572266 -123.9375 85.25 C-87.78274857 78.34710174 -56.17209477 61.57396619 -29 37 C-28.32839844 36.40058594 -27.65679687 35.80117188 -26.96484375 35.18359375 C-17.42534869 26.18534664 -10.00867173 14.82058789 -2.8984375 3.88671875 C-1 1 -1 1 0 0 Z " fill="#314659" transform="translate(438,360)"/>
<path d="M0 0 C0 2.64 0 5.28 0 8 C-0.99290039 8.17221069 -0.99290039 8.17221069 -2.00585938 8.34790039 C-48.0982755 16.4648288 -94.79528659 32.68962917 -123.33984375 72.2421875 C-132.98818542 86.51821278 -140.78308286 102.42451025 -144.625 119.25 C-144.94247192 120.60774536 -144.94247192 120.60774536 -145.26635742 121.99291992 C-146.93019808 129.28523673 -148.1626235 136.56359675 -149 144 C-149.33 144 -149.66 144 -150 144 C-152.67549232 113.55884296 -137.70585464 80.03550006 -118.67724609 56.95849609 C-92.40764587 26.28386247 -56.4069923 10.74956017 -17.6875 2.125 C-16.72682617 1.90948486 -15.76615234 1.69396973 -14.77636719 1.47192383 C-9.73942196 0.39861503 -5.14924772 -0.24148196 0 0 Z " fill="#B3DDA4" transform="translate(471,46)"/>
<path d="M0 0 C0.33 0 0.66 0 1 0 C0.52023402 8.21519578 -0.61475659 16.00700991 -2.5625 24 C-2.95622803 25.61914307 -2.95622803 25.61914307 -3.35791016 27.27099609 C-5.97829676 37.59589722 -9.54248433 47.33418402 -14 57 C-14.31163086 57.67708008 -14.62326172 58.35416016 -14.94433594 59.05175781 C-31.86163911 94.90927978 -64.62683861 119.84972458 -101.2890625 133.10546875 C-113.44507494 137.28157173 -126.19504706 140.68162023 -139 142 C-138.06062647 140.16656034 -137.07149886 138.35856373 -136.0625 136.5625 C-135.24458984 135.04849609 -135.24458984 135.04849609 -134.41015625 133.50390625 C-131.36810391 130.34352448 -129.77718297 130.43858704 -125.55834961 130.21069336 C-98.07886449 127.94761524 -65.37987042 110.93146196 -46.33203125 91.2421875 C-44 89 -44 89 -42 89 C-41.7628125 88.43796875 -41.525625 87.8759375 -41.28125 87.296875 C-39.71225291 84.48416071 -37.75651045 82.54935558 -35.5 80.25 C-29.19737927 73.54295151 -24.52860132 65.97851364 -20 58 C-19.63632324 57.35933594 -19.27264648 56.71867187 -18.89794922 56.05859375 C-9.17794195 38.58321382 -4.26680172 19.40706588 0 0 Z " fill="#81C26B" transform="translate(469,101)"/>
<path d="M0 0 C6.21195449 1.17127761 11.80672169 2.89496975 17.5625 5.5 C18.33335937 5.84675781 19.10421875 6.19351563 19.8984375 6.55078125 C45.10825062 18.22733954 65.90674155 36.15243254 77 62 C79.97150204 70.64518569 82.18844782 79.24330926 82.0625 88.4375 C82.05347656 89.30246094 82.04445313 90.16742188 82.03515625 91.05859375 C82.02355469 91.69925781 82.01195312 92.33992188 82 93 C81.67 93 81.34 93 81 93 C80.90203125 92.20078125 80.8040625 91.4015625 80.703125 90.578125 C77.34099711 65.88387529 65.1299096 45.98107599 45.38476562 30.75439453 C31.89681069 20.72458832 16.02771647 13.02977519 0 8 C-0.12117187 8.66644531 -0.24234375 9.33289063 -0.3671875 10.01953125 C-1.578125 16.6796875 -2.7890625 23.33984375 -4 30 C-4.33 30 -4.66 30 -5 30 C-5.65405476 19.69863757 -3.24953006 9.74859018 0 0 Z " fill="#B2DCA3" transform="translate(206,63)"/>
<path d="M0 0 C1.37708442 2.6252503 2.4387963 5.16984323 3.3125 8 C8.61064433 24.10530441 16.08130225 37.04720011 28 49 C28.68449219 49.70769531 29.36898437 50.41539062 30.07421875 51.14453125 C39.59233665 60.32605559 52.25490322 67.57378494 64.71484375 71.90234375 C69.65946135 74.27745067 71.061518 79.19994933 73 84 C66.12970921 82.16858372 59.95229922 79.79359572 53.6875 76.4375 C52.86427246 75.99768799 52.04104492 75.55787598 51.19287109 75.10473633 C28.34234492 62.58668017 11.20237596 43.81744522 3 19 C1.17705608 12.59207591 -0.17880625 6.68536712 0 0 Z " fill="#81C26B" transform="translate(201,117)"/>
<path d="M0 0 C0.70703125 1.62890625 0.70703125 1.62890625 1 4 C-7.9815027 23.17672197 -25.19425392 41.47715873 -42 54 C-42.5146582 54.38961914 -43.02931641 54.77923828 -43.55957031 55.18066406 C-57.66464878 65.81631427 -72.6054849 74.42916628 -89 81 C-89.95592041 81.39396973 -89.95592041 81.39396973 -90.93115234 81.79589844 C-105.6558383 87.84120214 -124.90820748 95.15517041 -141 94 C-141.66 93.34 -142.32 92.68 -143 92 C-142.625 89.875 -142.625 89.875 -142 88 C-141.67 88.33 -141.34 88.66 -141 89 C-131.93420614 89.00798572 -123.31556259 86.86386004 -114.625 84.5 C-113.9751413 84.3249292 -113.32528259 84.1498584 -112.6557312 83.96948242 C-68.04054158 71.87091001 -26.70337365 45.30222804 -2.78759766 4.95458984 C-1.84639891 3.30986881 -0.92137926 1.65590538 0 0 Z " fill="#BCC4CC" transform="translate(443,366)"/>
<path d="M0 0 C0.69025122 1.99198336 1.35064891 3.99431119 2 6 C3.25598484 8.90268502 4.63022627 11.74720873 6 14.59765625 C6.39241379 15.4213118 6.78482758 16.24496735 7.18913269 17.09358215 C8.02535291 18.8475379 8.86317906 20.60072877 9.70248413 22.35321045 C11.00454168 25.0719833 12.30225252 27.79279247 13.59887695 30.51416016 C17.21280137 38.09525452 20.83870016 45.67052466 24.48046875 53.23828125 C24.95162109 54.21982178 25.42277344 55.2013623 25.90820312 56.21264648 C26.73783618 57.93920154 27.5709605 59.66408502 28.40820312 61.38696289 C31 66.77768795 31 66.77768795 31 69 C28.36 69 25.72 69 23 69 C22.0090636 66.89585733 21.0181789 64.79169035 20.02734375 62.6875 C19.71249527 62.01887939 19.39764679 61.35025879 19.07325745 60.66137695 C17.30701689 56.91010763 15.54155561 53.15847387 13.77734375 49.40625 C13.03776475 47.8333313 12.29818136 46.26041466 11.55859375 44.6875 C11.18403046 43.89085937 10.80946716 43.09421875 10.42355347 42.2734375 C8.17925001 37.50182793 5.92959368 32.73279272 3.67494202 27.96606445 C2.28048289 25.01664742 0.88901023 22.06582747 -0.50192261 19.11474609 C-1.16699799 17.70557124 -1.83344022 16.29704066 -2.50125122 14.88916016 C-3.4314197 12.92773753 -4.35686739 10.96415449 -5.28125 9 C-5.80783203 7.88625 -6.33441406 6.7725 -6.87695312 5.625 C-8 3 -8 3 -8 1 C-2.25 -1.125 -2.25 -1.125 0 0 Z " fill="#BEC6CD" transform="translate(88,187)"/>
<path d="M0 0 C0.33 0 0.66 0 1 0 C1.08636719 0.61746094 1.17273437 1.23492187 1.26171875 1.87109375 C2.70820306 10.58981112 5.37139684 17.16654102 12.3125 22.875 C21.03478026 29.0580638 29.07529514 30.28414925 39.67578125 28.56640625 C47.87633493 26.51307944 54.53237021 21.9649805 58.9375 14.6875 C61.28420838 9.99408324 62.27696528 5.16915866 63 0 C63.33 0 63.66 0 64 0 C64.81496389 10.21421406 62.93860765 18.97348093 56.8125 27.375 C48.74815222 34.90172459 40.08083334 38.53006601 29.09375 38.3125 C21.13269596 37.50835313 13.62657236 33.67486912 8 28 C1.25761342 18.80038809 -0.32754654 11.24576471 0 0 Z " fill="#AB6D44" transform="translate(44,142)"/>
<path d="M0 0 C1.80654593 5.41963779 -1.00507396 10.8384293 -3 16 C-4.72024183 19.25758439 -6.72327457 22.10988496 -9 25 C-9.48984375 25.66386719 -9.9796875 26.32773438 -10.484375 27.01171875 C-13.99603095 31.43605756 -18.03636743 34.70891521 -22.625 37.9375 C-23.17551025 38.32744141 -23.72602051 38.71738281 -24.29321289 39.11914062 C-27.48919902 41.27964458 -30.1578891 42.55008739 -34 43 C-38.21925507 34.68253406 -41.26873626 26.17344942 -43 17 C-42.505 15.515 -42.505 15.515 -42 14 C-39.36 20.6 -36.72 27.2 -34 34 C-27.6664361 32.73328722 -24.06209378 29.85462187 -19 26 C-18.28070313 25.46117188 -17.56140625 24.92234375 -16.8203125 24.3671875 C-8.88177414 17.97311186 -4.28639747 9.08716263 0 0 Z " fill="#81C16A" transform="translate(339,58)"/>
<path d="M0 0 C0.96238036 2.03976214 1.91972527 4.08190046 2.875 6.125 C3.40867187 7.26195312 3.94234375 8.39890625 4.4921875 9.5703125 C6.83974248 14.91008782 8.27939779 19.13264641 8 25 C5.55185821 21.9703348 3.90547147 18.92450401 2.3125 15.375 C1.87550781 14.41335937 1.43851562 13.45171875 0.98828125 12.4609375 C0 10 0 10 0 8 C-13.52538145 16.33085089 -25.00016039 27.02519369 -31 42 C-31.3750821 43.65777028 -31.72057545 45.32345271 -32 47 C-32.33 47 -32.66 47 -33 47 C-33.66179852 34.86702721 -28.59477023 24.87105098 -20.6875 15.875 C-5.84782609 0 -5.84782609 0 0 0 Z " fill="#B2DCA4" transform="translate(330,19)"/>
<path d="M0 0 C1.390655 4.43286558 0.09534443 7.76570527 -1.25 12.0625 C-4.08662392 21.59552969 -5.65812015 31.15954779 -7 41 C-7.33 41 -7.66 41 -8 41 C-9.16452856 27.75025279 -6.18489655 13.55468964 -2 1 C-1.34 0.67 -0.68 0.34 0 0 Z " fill="#A8D69B" transform="translate(329,149)"/>
<path d="M0 0 C2.625 0.375 2.625 0.375 5 1 C5.625 3.375 5.625 3.375 6 6 C5.34 6.66 4.68 7.32 4 8 C1.375 7.625 1.375 7.625 -1 7 C-1.625 4.625 -1.625 4.625 -2 2 C-1.34 1.34 -0.68 0.68 0 0 Z " fill="#314759" transform="translate(282,452)"/>
<path d="M0 0 C2.625 0.375 2.625 0.375 5 1 C5.625 3.375 5.625 3.375 6 6 C5.34 6.66 4.68 7.32 4 8 C1.375 7.625 1.375 7.625 -1 7 C-1.625 4.625 -1.625 4.625 -2 2 C-1.34 1.34 -0.68 0.68 0 0 Z " fill="#304857" transform="translate(234,117)"/>
<path d="M0 0 C2.625 0.375 2.625 0.375 5 1 C5.625 3.375 5.625 3.375 6 6 C5.34 6.66 4.68 7.32 4 8 C1.375 7.625 1.375 7.625 -1 7 C-1.625 4.625 -1.625 4.625 -2 2 C-1.34 1.34 -0.68 0.68 0 0 Z " fill="#304857" transform="translate(418,101)"/>
<path d="M0 0 C1.423125 0.2784375 1.423125 0.2784375 2.875 0.5625 C5.89868793 1.28686632 5.89868793 1.28686632 8 0 C7.67 1.65 7.34 3.3 7 5 C4.625 5.625 4.625 5.625 2 6 C1.34 5.34 0.68 4.68 0 4 C0 2.68 0 1.36 0 0 Z " fill="#BFC8CF" transform="translate(280,458)"/>
</svg>
