<?xml version="1.0" standalone="no"?>
<!DOCTYPE svg PUBLIC "-//W3C//DTD SVG 20010904//EN"
 "http://www.w3.org/TR/2001/REC-SVG-20010904/DTD/svg10.dtd">
<svg version="1.0" xmlns="http://www.w3.org/2000/svg"
 width="32.000000pt" height="32.000000pt" viewBox="0 0 32.000000 32.000000"
 preserveAspectRatio="xMidYMid meet">

<g transform="translate(0.000000,32.000000) scale(0.100000,-0.100000)"
fill="#000000" stroke="none">
<path d="M180 224 c-19 -49 11 -61 35 -14 19 37 19 40 -5 40 -13 0 -24 -10
-30 -26z"/>
<path d="M70 217 c0 -21 74 -97 95 -97 13 0 5 14 -31 53 -54 58 -64 65 -64 44z"/>
<path d="M227 109 c-10 -6 -45 -9 -77 -7 -32 1 -56 0 -54 -4 8 -13 77 -28 101
-22 29 8 29 0 1 -26 -24 -22 -58 -26 -91 -9 -21 10 -21 9 2 -10 48 -42 121
-12 140 57 10 34 7 38 -22 21z"/>
</g>
</svg>
